<!--?xml version="1.0" encoding="utf-8"?-->
<!-- Generator: Adobe Illustrator 18.1.1, SVG Export Plug-In . SVG Version: 6.00 Build 0)  -->

<svg version="1.1" id="_x32_" xmlns="http://www.w3.org/2000/svg" xmlns:xlink="http://www.w3.org/1999/xlink" x="0px" y="0px" viewBox="0 0 512 512" style="width: 128px; height: 128px; opacity: 1;" xml:space="preserve">
<style type="text/css">
	.st0{fill:#4B4B4B;}
</style>
<g>
	<path class="st0" d="M509.853,181.5h-40.344C444.967,86.337,358.837,15.954,256,15.943C153.163,15.954,67.033,86.337,42.491,181.5
		H2.147c0,0-29.264,141.736,128.295,236.63c9.97,6.908,20.588,12.89,31.656,18.107l-5.432,59.82h198.668l-5.433-59.82
		c11.069-5.217,21.687-11.199,31.657-18.107C539.117,323.236,509.853,181.5,509.853,181.5z M256,181.5H88.32
		c8.72-26.536,23.476-50.325,42.812-69.683C163.155,79.816,207.163,60.103,256,60.092c48.837,0.011,92.845,19.724,124.868,51.725
		c19.336,19.358,34.092,43.146,42.812,69.683H256z" style="fill: rgb(75, 75, 75);"></path>
</g>
</svg>
